<?xml version="1.0" encoding="UTF-8"?>
<!-- Generated by Pixelmator Pro 3.6.17 -->
<svg width="506" height="283" viewBox="0 0 506 283" xmlns="http://www.w3.org/2000/svg">
    <path id="Rectangle-1" fill="#000000" fill-rule="evenodd" stroke="#000000" stroke-width="0.334641" visibility="hidden" d="M 78.65229 -98.267975 L 425.005219 -98.267975 C 462.338226 -98.267975 492.602661 -68.003601 492.602661 -30.670593 L 492.602661 315.682343 C 492.602661 353.01535 462.338226 383.279724 425.005219 383.279724 L 78.65229 383.279724 C 41.319286 383.279724 11.054904 353.01535 11.054904 315.682343 L 11.054904 -30.670593 C 11.054904 -68.003601 41.319286 -98.267975 78.65229 -98.267975 Z"/>
    <path id="Color-Fill" fill="#dde9ec" stroke="none" visibility="hidden" d="M 0 0 L 506 0 L 506 283 L 0 283 Z"/>
    <path id="Path-copy" fill="#2ba2d1" stroke="none" d="M 354.071472 91.551285 C 350.697113 90.39357 347.294159 89.321045 343.865753 88.334747 C 344.441711 85.981506 344.971802 83.656738 345.442474 81.372833 C 353.168579 43.868118 348.117737 13.653534 330.865875 3.705444 C 314.324982 -5.831421 287.273651 4.112946 259.953583 27.889511 C 257.261108 30.236984 254.628311 32.652115 252.057816 35.132584 C 250.337021 33.483154 248.5858 31.865738 246.805099 30.281158 C 218.172165 4.858551 189.472336 -5.856201 172.239075 4.120392 C 155.713028 13.686981 150.819489 42.09079 157.775208 77.634872 C 158.467239 81.155136 159.248596 84.657257 160.118561 88.137833 C 156.056091 89.292145 152.136078 90.520813 148.384491 91.82872 C 114.814667 103.533066 93.376503 121.874847 93.376503 140.900299 C 93.376503 160.550003 116.39135 180.259125 151.355774 192.209961 C 154.190414 193.17485 157.048645 194.068954 159.927826 194.891418 C 158.992752 198.640152 158.162598 202.414276 157.438324 206.209351 C 150.807098 241.136658 155.985504 268.869141 172.466965 278.375061 C 189.48967 288.191864 218.060684 278.10257 245.879883 253.783539 C 248.135727 251.806412 250.341888 249.773315 252.496262 247.686127 C 255.279999 250.371994 258.138031 252.979752 261.067078 255.506363 C 288.015564 278.694611 314.629669 288.058075 331.095032 278.526154 C 348.101624 268.680908 353.629333 238.888672 346.453125 202.642334 C 345.887787 199.802673 345.253876 196.977112 344.551941 194.168121 C 346.558411 193.573608 348.52771 192.961761 350.447479 192.32515 C 386.7966 180.282654 410.446838 160.812561 410.446838 140.900299 C 410.446838 121.805481 388.316315 103.339859 354.071472 91.551285 Z M 346.188049 179.468933 C 344.454071 180.042389 342.675507 180.596039 340.862274 181.134796 C 336.849365 168.430923 331.434387 154.923233 324.806854 140.965942 C 331.130951 127.341843 336.33783 114.006302 340.238037 101.385422 C 343.481812 102.324234 346.628998 103.313858 349.663452 104.357956 C 379.004852 114.45961 396.901978 129.392868 396.901978 140.900299 C 396.901978 153.157059 377.57309 169.068787 346.188049 179.468933 Z M 333.165894 205.27301 C 336.339081 221.299927 336.791168 235.791031 334.689331 247.120102 C 332.801758 257.299805 329.004333 264.085846 324.307739 266.804474 C 314.316284 272.588531 292.94751 265.070496 269.901672 245.238739 C 267.177307 242.889633 264.518738 240.465271 261.929108 237.968414 C 270.864044 228.197449 279.792816 216.838654 288.507263 204.222717 C 303.835663 202.862793 318.316864 200.638336 331.449249 197.602646 C 332.081848 200.145538 332.654205 202.703049 333.165894 205.27301 Z M 201.472702 265.804962 C 191.710403 269.251862 183.934753 269.350952 179.234436 266.640991 C 169.233093 260.873047 165.075272 238.605042 170.746613 208.736023 C 171.420776 205.206482 172.192703 201.696289 173.061462 198.209534 C 186.048965 201.082977 200.424896 203.148895 215.789185 204.394867 C 224.56311 216.739563 233.749481 228.085983 243.007675 238.021667 C 241.040176 239.925507 239.026077 241.780594 236.967255 243.585266 C 224.664673 254.338409 212.337311 261.967926 201.472702 265.804962 Z M 155.737793 179.393372 C 140.276901 174.108459 127.508629 167.240662 118.756989 159.746185 C 110.892159 153.012146 106.922585 146.32518 106.922585 140.900299 C 106.922585 129.354477 124.134796 114.628052 152.843292 104.619293 C 156.327347 103.405502 159.973648 102.259842 163.757446 101.184769 C 167.725769 114.09053 172.930191 127.584579 179.210907 141.229752 C 172.84845 155.076813 167.569717 168.786392 163.562988 181.844482 C 160.934906 181.091675 158.325714 180.274414 155.737793 179.393372 Z M 171.068649 75.032654 C 165.109955 44.580292 169.067139 21.608795 179.026352 15.843292 C 189.633347 9.702545 213.089127 18.457916 237.811935 40.410065 C 239.424088 41.844788 241.010117 43.308578 242.569244 44.800751 C 233.356857 54.693085 224.254715 65.955276 215.558807 78.226898 C 200.646591 79.609116 186.372238 81.828613 173.248489 84.802383 C 172.439926 81.565063 171.713074 78.307846 171.068649 75.033905 Z M 307.838654 108.805603 C 304.738831 103.451233 301.524048 98.164261 298.196503 92.94838 C 308.313019 94.227814 318.005951 95.925873 327.108093 98.001678 C 324.375854 106.760757 320.969849 115.917404 316.960632 125.305664 C 314.030121 119.745453 310.988861 114.244339 307.838654 108.805603 Z M 252.064011 54.481293 C 258.311279 61.250015 264.568451 68.806442 270.722839 77.005676 C 258.23822 76.416061 245.732742 76.413574 233.247864 76.99826 C 239.408447 68.874557 245.718887 61.328033 252.064011 54.481293 Z M 195.931412 108.898514 C 192.820587 114.293457 189.83609 119.760269 186.980362 125.294495 C 183.036804 115.939682 179.661743 106.740921 176.90596 97.858002 C 185.952377 95.834198 195.599472 94.179504 205.651596 92.923599 C 202.286957 98.171341 199.046005 103.49736 195.931412 108.897263 Z M 205.940186 189.840622 C 195.554886 188.68132 185.762878 187.112076 176.718933 185.142761 C 179.518066 176.101318 182.967453 166.706848 186.99646 157.151398 C 189.863525 162.689728 192.860413 168.159882 195.98468 173.557312 C 199.197479 179.106049 202.524246 184.540833 205.940186 189.840622 Z M 252.438049 228.27301 C 246.017365 221.346985 239.614044 213.684052 233.36058 205.442703 C 239.431976 205.680481 245.621033 205.80188 251.911667 205.80188 C 258.374451 205.80188 264.762939 205.656952 271.051086 205.377045 C 264.876862 213.767029 258.643219 221.441116 252.438049 228.27301 Z M 317.088196 156.663406 C 321.326538 166.324158 324.898529 175.669067 327.734833 184.555679 C 318.542236 186.653793 308.616486 188.343201 298.158112 189.597839 C 301.509369 184.285126 304.754608 178.90625 307.891907 173.464432 C 311.081635 167.933014 314.147827 162.331268 317.088196 156.663406 Z M 296.159088 166.69696 C 291.356171 175.040314 286.283295 183.225311 280.948364 191.238953 C 271.284637 191.92337 261.599609 192.263351 251.911667 192.25827 C 242.044083 192.25827 232.446518 191.951111 223.204407 191.351624 C 217.730286 183.356537 212.560577 175.157227 207.70636 166.771271 L 207.707596 166.771271 C 202.876236 158.429688 198.363403 149.907654 194.178864 141.223572 C 198.352737 132.537445 202.851868 124.011383 207.666733 115.663498 L 207.665497 115.664719 C 212.478516 107.314667 217.606934 99.150406 223.039688 91.189621 C 232.468811 90.476212 242.138214 90.104645 251.910416 90.104645 L 251.911667 90.104645 C 261.728455 90.104645 271.410248 90.479935 280.836884 91.198303 C 286.214783 99.147171 291.310486 107.28334 296.114471 115.59166 C 300.945374 123.921173 305.504028 132.405655 309.783203 141.031601 C 305.547943 149.745743 301.003693 158.306274 296.159088 166.69696 Z M 324.100891 15.439545 C 334.717804 21.562958 338.847137 46.256042 332.17627 78.638092 C 331.750214 80.70401 331.272125 82.808304 330.751953 84.942337 C 317.596008 81.905411 303.311737 79.647507 288.356171 78.244247 C 279.644165 65.837631 270.616333 54.558105 261.553833 44.79332 C 263.928925 42.503845 266.360535 40.273773 268.846436 38.105118 C 292.255157 17.734589 314.132996 9.691406 324.100891 15.439545 Z M 251.911667 112.586914 C 267.548431 112.586914 280.225067 125.263535 280.225067 140.900299 C 280.225067 156.537079 267.548431 169.213684 251.911667 169.213684 C 236.274887 169.213684 223.598267 156.537079 223.598267 140.900299 C 223.598267 125.263535 236.274887 112.586914 251.911667 112.586914 Z"/>
    <g id="Brackets">
        <path id="path1" fill="#e93787" fill-rule="evenodd" stroke="none" d="M 126.95871 257.46582 L 126.972656 278.659027 L 117.553459 278.665222 C 93.122284 278.681305 76.759102 275.061798 68.463409 267.80658 C 60.167732 260.551392 56.012821 246.082031 55.998547 224.398148 L 55.979172 194.963135 C 55.97213 184.268356 52.949001 175.04747 46.909687 167.300186 C 40.870384 159.552902 31.522312 155.683502 18.865194 155.691833 L 0.909841 155.703644 L 0.895987 134.657623 L 18.851339 134.645782 C 32.685863 134.636688 42.323563 131.343475 47.764736 124.766022 C 53.205917 118.188599 55.922264 108.5224 55.913868 95.767181 L 55.88868 57.501648 C 55.874405 35.81778 60.010277 21.367493 68.296432 14.150452 C 76.582588 6.93338 92.94101 3.316833 117.372185 3.300751 L 126.791382 3.294556 L 126.805237 24.340576 L 116.502983 24.347382 C 102.766579 24.356415 93.814934 26.496307 89.647758 30.767151 C 85.480583 35.037994 83.401627 44.139618 83.410797 58.072266 L 83.43676 97.515167 C 83.448128 114.783783 80.07077 126.388184 73.304596 132.328735 C 66.538414 138.269287 53.344681 142.570526 33.722992 145.23262 C 52.759212 147.476776 65.811462 151.809799 72.880127 158.231827 C 79.948792 164.653839 83.488594 176.253708 83.499641 193.031738 L 83.51989 223.791321 C 83.529129 237.822083 85.620087 246.945465 89.792847 251.161758 C 93.965607 255.378052 102.920052 257.481628 116.656448 257.472595 Z"/>
        <path id="path2" fill="#e93787" fill-rule="evenodd" stroke="none" d="M 389.607666 257.537811 C 403.344055 257.528748 412.295746 255.413391 416.462952 251.191605 C 420.630157 246.969818 422.709106 237.843689 422.69986 223.812927 L 422.679596 193.053345 C 422.668579 176.275314 426.193085 164.670807 433.253296 158.239487 C 440.313507 151.808151 453.360046 147.457947 472.39328 145.188721 C 452.768097 142.552475 439.568726 138.268616 432.794708 132.336975 C 426.020721 126.405334 422.628113 114.805389 422.61673 97.536774 L 422.590759 58.093872 C 422.581604 44.161224 420.490631 35.062347 416.317841 30.796997 C 412.145081 26.531647 403.190613 24.403534 389.454193 24.412567 L 379.151947 24.419373 L 379.138092 3.373322 L 388.557281 3.367126 C 412.988464 3.351044 429.351624 6.946045 437.647278 14.152191 C 445.942932 21.358337 450.097839 35.803131 450.112122 57.48703 L 450.137299 95.752533 C 450.145691 108.507782 452.874756 118.17038 458.324585 124.740631 C 463.774414 131.310913 473.416443 134.591431 487.250977 134.582336 L 505.206329 134.570526 L 505.220184 155.616547 L 487.264832 155.628372 C 474.607727 155.636703 465.26474 159.518417 459.235657 167.273636 C 453.206543 175.02887 450.195557 184.253723 450.202606 194.948502 L 450.221985 224.383514 C 450.236237 246.067413 446.100372 260.542206 437.81427 267.80835 C 429.528137 275.074463 413.169739 278.715515 388.738556 278.731598 L 379.319366 278.737793 L 379.30542 257.544586 Z"/>
    </g>
</svg>
