<?xml version="1.0" encoding="UTF-8"?>
<!-- Generated by Pixelmator Pro 3.6.17 -->
<svg width="506" height="506" viewBox="0 0 506 506" xmlns="http://www.w3.org/2000/svg">
    <path id="React_logo" fill="#073446" stroke="none" d="M 354.071472 203.55127 C 350.697113 202.393585 347.294159 201.321045 343.865753 200.334747 C 344.441711 197.981506 344.971802 195.656738 345.442474 193.372833 C 353.168579 155.868134 348.117737 125.653534 330.865875 115.705444 C 314.324982 106.168579 287.273651 116.112946 259.953583 139.889496 C 257.261108 142.237 254.628311 144.65213 252.057816 147.132599 C 250.337021 145.483154 248.5858 143.865723 246.805099 142.281158 C 218.172165 116.858551 189.472336 106.143799 172.239075 116.120392 C 155.713028 125.686981 150.819489 154.09079 157.775208 189.634857 C 158.467239 193.155151 159.248596 196.657257 160.118561 200.137817 C 156.056091 201.292145 152.136078 202.520813 148.384491 203.828735 C 114.814667 215.533081 93.376503 233.874847 93.376503 252.900299 C 93.376503 272.549988 116.39135 292.259155 151.355774 304.209961 C 154.190414 305.174866 157.048645 306.06897 159.927826 306.891418 C 158.992752 310.640137 158.162598 314.414276 157.438324 318.209351 C 150.807098 353.136658 155.985504 380.869141 172.466965 390.375061 C 189.48967 400.191864 218.060684 390.1026 245.879883 365.783539 C 248.135727 363.806396 250.341888 361.773315 252.496262 359.686127 C 255.279999 362.372009 258.138031 364.979736 261.067078 367.506348 C 288.015564 390.694611 314.629669 400.058105 331.095032 390.526154 C 348.101624 380.680908 353.629333 350.888672 346.453125 314.642334 C 345.887787 311.802673 345.253876 308.977112 344.551941 306.168121 C 346.558411 305.573608 348.52771 304.961761 350.447479 304.325134 C 386.7966 292.282654 410.446838 272.812561 410.446838 252.900299 C 410.446838 233.805481 388.316315 215.339844 354.071472 203.55127 Z M 346.188049 291.468933 C 344.454071 292.042389 342.675507 292.596008 340.862274 293.134796 C 336.849365 280.430908 331.434387 266.923218 324.806854 252.965942 C 331.130951 239.341827 336.33783 226.006317 340.238037 213.385406 C 343.481812 214.324249 346.628998 215.313843 349.663452 216.357971 C 379.004852 226.459625 396.901978 241.392883 396.901978 252.900299 C 396.901978 265.157043 377.57309 281.068787 346.188049 291.468933 Z M 333.165894 317.27301 C 336.339081 333.299927 336.791168 347.791016 334.689331 359.120117 C 332.801758 369.299805 329.004333 376.085846 324.307739 378.804474 C 314.316284 384.588531 292.94751 377.070496 269.901672 357.238739 C 267.177307 354.889648 264.518738 352.465271 261.929108 349.968384 C 270.864044 340.197449 279.792816 328.838623 288.507263 316.222717 C 303.835663 314.862793 318.316864 312.638306 331.449249 309.602661 C 332.081848 312.145538 332.654205 314.703064 333.165894 317.27301 Z M 201.472702 377.804962 C 191.710403 381.251862 183.934753 381.350952 179.234436 378.640991 C 169.233093 372.873047 165.075272 350.605042 170.746613 320.736023 C 171.420776 317.206482 172.192703 313.696289 173.061462 310.209534 C 186.048965 313.082977 200.424896 315.148895 215.789185 316.394897 C 224.56311 328.739563 233.749481 340.085999 243.007675 350.021667 C 241.040176 351.925476 239.026077 353.780579 236.967255 355.585266 C 224.664673 366.338409 212.337311 373.967926 201.472702 377.804962 Z M 155.737793 291.393372 C 140.276901 286.108459 127.508629 279.240662 118.756989 271.746155 C 110.892159 265.012146 106.922585 258.325195 106.922585 252.900299 C 106.922585 241.354492 124.134796 226.628052 152.843292 216.619293 C 156.327347 215.405487 159.973648 214.259857 163.757446 213.184753 C 167.725769 226.090515 172.930191 239.584595 179.210907 253.229752 C 172.84845 267.076813 167.569717 280.786377 163.562988 293.844482 C 160.934906 293.091675 158.325714 292.274414 155.737793 291.393372 Z M 171.068649 187.032654 C 165.109955 156.580292 169.067139 133.608795 179.026352 127.843292 C 189.633347 121.702545 213.089127 130.457916 237.811935 152.410065 C 239.424088 153.844788 241.010117 155.308594 242.569244 156.800751 C 233.356857 166.693085 224.254715 177.955292 215.558807 190.226898 C 200.646591 191.609131 186.372238 193.828613 173.248489 196.802399 C 172.439926 193.565063 171.713074 190.307861 171.068649 187.033905 Z M 307.838654 220.805603 C 304.738831 215.451233 301.524048 210.164276 298.196503 204.948364 C 308.313019 206.227814 318.005951 207.925873 327.108093 210.001678 C 324.375854 218.760742 320.969849 227.917389 316.960632 237.305664 C 314.030121 231.745453 310.988861 226.244324 307.838654 220.805603 Z M 252.064011 166.481293 C 258.311279 173.250031 264.568451 180.806427 270.722839 189.005676 C 258.23822 188.416046 245.732742 188.413574 233.247864 188.99826 C 239.408447 180.874542 245.718887 173.328033 252.064011 166.481293 Z M 195.931412 220.898499 C 192.820587 226.293457 189.83609 231.760284 186.980362 237.294495 C 183.036804 227.939697 179.661743 218.740936 176.90596 209.858002 C 185.952377 207.834198 195.599472 206.179504 205.651596 204.923584 C 202.286957 210.171356 199.046005 215.497375 195.931412 220.897247 Z M 205.940186 301.840637 C 195.554886 300.681335 185.762878 299.112061 176.718933 297.142761 C 179.518066 288.101318 182.967453 278.706848 186.99646 269.151398 C 189.863525 274.689728 192.860413 280.159882 195.98468 285.557312 C 199.197479 291.106049 202.524246 296.540833 205.940186 301.840637 Z M 252.438049 340.27301 C 246.017365 333.346985 239.614044 325.684052 233.36058 317.442688 C 239.431976 317.680481 245.621033 317.80188 251.911667 317.80188 C 258.374451 317.80188 264.762939 317.656952 271.051086 317.377075 C 264.876862 325.767029 258.643219 333.441101 252.438049 340.27301 Z M 317.088196 268.663391 C 321.326538 278.324158 324.898529 287.669067 327.734833 296.555664 C 318.542236 298.653809 308.616486 300.343201 298.158112 301.597839 C 301.509369 296.285126 304.754608 290.90625 307.891907 285.464417 C 311.081635 279.933014 314.147827 274.331299 317.088196 268.663391 Z M 296.159088 278.69696 C 291.356171 287.040314 286.283295 295.225311 280.948364 303.238953 C 271.284637 303.92334 261.599609 304.263367 251.911667 304.25827 C 242.044083 304.25827 232.446518 303.951111 223.204407 303.351624 C 217.730286 295.356567 212.560577 287.157227 207.70636 278.771271 L 207.707596 278.771271 C 202.876236 270.429688 198.363403 261.907654 194.178864 253.223572 C 198.352737 244.537445 202.851868 236.011383 207.666733 227.663483 L 207.665497 227.664734 C 212.478516 219.314667 217.606934 211.150391 223.039688 203.189606 C 232.468811 202.476227 242.138214 202.104645 251.910416 202.104645 L 251.911667 202.104645 C 261.728455 202.104645 271.410248 202.47995 280.836884 203.198303 C 286.214783 211.147186 291.310486 219.283356 296.114471 227.591644 C 300.945374 235.921173 305.504028 244.40564 309.783203 253.031601 C 305.547943 261.745728 301.003693 270.306274 296.159088 278.69696 Z M 324.100891 127.439545 C 334.717804 133.562958 338.847137 158.256042 332.17627 190.638092 C 331.750214 192.70401 331.272125 194.808319 330.751953 196.942352 C 317.596008 193.905426 303.311737 191.647522 288.356171 190.244232 C 279.644165 177.837616 270.616333 166.558105 261.553833 156.793304 C 263.928925 154.503845 266.360535 152.273773 268.846436 150.105103 C 292.255157 129.734589 314.132996 121.691406 324.100891 127.439545 Z M 251.911667 224.586914 C 267.548431 224.586914 280.225067 237.263519 280.225067 252.900299 C 280.225067 268.537079 267.548431 281.213684 251.911667 281.213684 C 236.274887 281.213684 223.598267 268.537079 223.598267 252.900299 C 223.598267 237.263519 236.274887 224.586914 251.911667 224.586914 Z"/>
    <g id="Brackets">
        <path id="left" fill="#e93787" fill-rule="evenodd" stroke="none" d="M 126.95871 369.46582 L 126.972656 390.659027 L 117.553459 390.665222 C 93.122284 390.681305 76.759102 387.061798 68.463409 379.80658 C 60.167732 372.551392 56.012821 358.082031 55.998547 336.398132 L 55.979172 306.963135 C 55.97213 296.268372 52.949001 287.047485 46.909687 279.300171 C 40.870384 271.552917 31.522312 267.683502 18.865194 267.691833 L 0.909841 267.703644 L 0.895987 246.657623 L 18.851339 246.645782 C 32.685863 246.636688 42.323563 243.343475 47.764736 236.766022 C 53.205917 230.188599 55.922264 220.5224 55.913868 207.767181 L 55.88868 169.501648 C 55.874405 147.81778 60.010277 133.367493 68.296432 126.150452 C 76.582588 118.93338 92.94101 115.316833 117.372185 115.300751 L 126.791382 115.294556 L 126.805237 136.340576 L 116.502983 136.347382 C 102.766579 136.356415 93.814934 138.496307 89.647758 142.767151 C 85.480583 147.037994 83.401627 156.139618 83.410797 170.072266 L 83.43676 209.515167 C 83.448128 226.783783 80.07077 238.388184 73.304596 244.328735 C 66.538414 250.269287 53.344681 254.570526 33.722992 257.232605 C 52.759212 259.476776 65.811462 263.809814 72.880127 270.231812 C 79.948792 276.653839 83.488594 288.253723 83.499641 305.031738 L 83.51989 335.791321 C 83.529129 349.822083 85.620087 358.945465 89.792847 363.161743 C 93.965607 367.378052 102.920052 369.481628 116.656448 369.472595 Z"/>
        <path id="right" fill="#e93787" fill-rule="evenodd" stroke="none" d="M 389.607666 369.537811 C 403.344055 369.528748 412.295746 367.413391 416.462952 363.191589 C 420.630157 358.969818 422.709106 349.843689 422.69986 335.812927 L 422.679596 305.053345 C 422.668579 288.27533 426.193085 276.670807 433.253296 270.239502 C 440.313507 263.808167 453.360046 259.457947 472.39328 257.188721 C 452.768097 254.552475 439.568726 250.268616 432.794708 244.336975 C 426.020721 238.405334 422.628113 226.805389 422.61673 209.536774 L 422.590759 170.093872 C 422.581604 156.161224 420.490631 147.062347 416.317841 142.796997 C 412.145081 138.531647 403.190613 136.403534 389.454193 136.412567 L 379.151947 136.419373 L 379.138092 115.373322 L 388.557281 115.367126 C 412.988464 115.351044 429.351624 118.946045 437.647278 126.152191 C 445.942932 133.358337 450.097839 147.803131 450.112122 169.48703 L 450.137299 207.752533 C 450.145691 220.507782 452.874756 230.17038 458.324585 236.740631 C 463.774414 243.310913 473.416443 246.591431 487.250977 246.582336 L 505.206329 246.570526 L 505.220184 267.616547 L 487.264832 267.628357 C 474.607727 267.636719 465.26474 271.518433 459.235657 279.273621 C 453.206543 287.02887 450.195557 296.253723 450.202606 306.948486 L 450.221985 336.383514 C 450.236237 358.067413 446.100372 372.542206 437.81427 379.80835 C 429.528137 387.074463 413.169739 390.715515 388.738556 390.731598 L 379.319366 390.737793 L 379.30542 369.544586 Z"/>
    </g>
</svg>
