<svg version="1.1" id="Layer_1" xmlns="http://www.w3.org/2000/svg" xmlns:xlink="http://www.w3.org/1999/xlink" x="0px" y="0px"
	 width="100%" viewBox="0 0 701 411" xml:space="preserve">
<path fill="#FFFFFF" opacity="1.000000" stroke="none" 
	d="
M451.000000,1.000000 
	C534.584351,1.000000 618.168701,1.000000 702.000000,1.000000 
	C702.000000,65.354019 702.000000,129.708344 701.531372,194.531342 
	C688.865784,194.333344 676.590637,194.295074 664.498169,192.789139 
	C655.777832,191.703140 648.305725,187.249893 643.014282,179.599701 
	C635.817261,169.194687 633.526001,157.299881 633.151855,145.211121 
	C632.329285,118.630180 632.318787,92.023819 632.007446,65.427475 
	C631.877625,54.338882 629.742065,43.603767 625.915466,33.261196 
	C622.154785,23.096838 615.257141,15.391686 605.250061,11.183891 
	C585.396179,2.835696 564.426453,3.617275 543.303467,4.193463 
	C543.303467,14.861945 543.303467,25.244022 543.303467,35.487080 
	C553.508545,36.002113 563.458801,36.016598 573.282593,37.138367 
	C582.947388,38.241974 591.009155,42.562897 593.439941,53.029278 
	C595.024231,59.851070 596.668640,66.830864 596.840393,73.775627 
	C597.305786,92.592636 596.628113,111.438545 597.125366,130.253922 
	C597.481628,143.734955 598.368347,157.272064 600.198730,170.622330 
	C601.716858,181.695740 606.635437,191.271317 616.875916,197.575241 
	C627.396973,204.051926 639.082214,206.754852 651.718567,209.797821 
	C650.611816,210.784180 650.032593,211.709503 649.254211,211.929306 
	C642.986938,213.699127 636.301636,214.517761 630.485718,217.222046 
	C623.312378,220.557495 615.650757,224.288361 610.345947,229.882980 
	C600.572388,240.190704 598.570618,254.058548 598.081665,267.755707 
	C597.135132,294.275055 597.010742,320.826813 595.823181,347.332794 
	C595.369690,357.454407 591.605713,366.704895 580.464172,370.057068 
	C575.819031,371.454651 570.968994,372.429993 566.143738,372.910767 
	C558.618469,373.660583 551.034851,373.825409 543.307861,374.247284 
	C543.307861,384.536530 543.307861,394.585907 543.307861,405.000000 
	C551.246338,405.000000 558.880554,404.999969 566.514832,405.000000 
	C578.746887,405.000092 590.649597,403.137360 602.223694,399.061676 
	C612.460388,395.456909 620.505920,389.218750 624.808716,379.221069 
	C630.849365,365.185425 632.839294,350.234894 632.969971,335.052368 
	C633.104797,319.390869 632.659973,303.717010 633.132751,288.068634 
	C633.398987,279.257080 634.355713,270.348114 636.182678,261.733582 
	C638.206238,252.192062 642.776001,243.405289 650.000549,236.733002 
	C657.886414,229.450012 667.638367,226.467453 678.508789,226.934616 
	C686.325745,227.270554 694.168640,227.000000 702.000000,227.000000 
	C702.000000,288.604736 702.000000,350.209503 702.000000,412.000000 
	C618.645874,412.000000 535.291565,412.000000 451.602173,411.629822 
	C465.195435,408.788452 475.014740,400.598907 481.693512,388.592926 
	C487.424316,378.291046 490.909607,367.183167 490.984863,355.243713 
	C491.056366,343.902435 491.836639,332.476929 490.741486,321.240875 
	C489.539551,308.909546 486.549774,296.752472 484.350464,284.582855 
	C495.680328,280.415833 507.345703,276.709747 518.527771,271.883728 
	C538.131165,263.423187 556.650208,253.074600 569.835938,235.542389 
	C575.627808,227.841293 579.536621,219.250763 580.055603,209.280884 
	C581.089539,189.419250 570.650024,175.210999 556.646545,163.464035 
	C539.623474,149.184067 519.301514,140.601990 498.521362,133.230209 
	C493.653992,131.503510 488.650452,130.160629 484.862671,128.995789 
	C487.348145,111.317413 490.415192,94.834732 491.780457,78.212280 
	C493.013763,63.195995 491.641754,48.122345 486.010468,33.811813 
	C482.608856,25.167349 478.105835,17.424299 470.881378,11.123394 
	C464.964386,5.962841 457.987640,3.649374 451.000000,1.000000 
z"/>
<path fill="#FFFFFF" opacity="1.000000" stroke="none" 
	d="
M1.000000,195.000000 
	C1.000000,130.397964 1.000000,65.795929 1.000000,1.000000 
	C82.020790,1.000000 163.041733,1.000000 244.415955,1.356334 
	C231.816864,5.711726 222.117691,13.436560 215.698059,25.613558 
	C204.524887,46.807247 204.969315,69.449837 207.240631,92.161949 
	C208.458145,104.336487 211.473404,116.331245 213.693069,128.492889 
	C204.067520,131.952209 194.114716,135.127899 184.477585,139.074509 
	C163.107712,147.825912 142.625198,158.205200 128.362442,177.269943 
	C117.027657,192.420929 114.086716,208.770233 122.809639,226.549042 
	C129.019272,239.205383 138.837463,248.240311 150.120056,255.987961 
	C166.624542,267.321442 184.905273,274.915222 203.862244,281.022217 
	C207.300919,282.129974 210.738388,283.241547 213.847458,284.245178 
	C209.369888,308.349884 204.096436,331.549347 206.816803,355.756195 
	C208.181366,367.898560 210.979599,379.324585 217.035324,389.843933 
	C222.535675,399.398560 230.543869,406.202759 241.001266,410.013428 
	C242.096695,410.412598 243.004929,411.325470 244.000000,412.000000 
	C163.082855,412.000000 82.165695,412.000000 1.000000,412.000000 
	C1.000000,350.645996 1.000000,289.291656 1.468657,227.468658 
	C10.937114,227.000000 19.942358,226.802811 28.935301,227.051132 
	C39.597214,227.345551 48.990021,231.340942 55.790596,239.500702 
	C64.733429,250.230927 69.408981,263.110077 69.876869,276.985840 
	C70.748909,302.847870 68.264595,328.851654 72.207298,354.562134 
	C73.617989,363.761261 76.490746,373.006500 80.315575,381.501556 
	C86.013847,394.157593 98.262520,398.660767 110.674759,401.923920 
	C126.887764,406.186218 143.509827,405.044495 160.034866,404.833099 
	C160.288040,404.829865 160.536331,404.444794 160.727692,404.286804 
	C160.727692,394.297058 160.727692,384.362549 160.727692,374.499359 
	C150.291977,373.651459 140.095230,373.133484 129.983261,371.913147 
	C120.069191,370.716644 111.840973,366.398254 109.484055,355.757874 
	C107.756599,347.959167 106.362755,339.938416 106.153084,331.981537 
	C105.670326,313.661255 106.314194,295.311829 105.863998,276.989899 
	C105.647362,268.173248 104.576424,259.275116 102.854439,250.620422 
	C99.774467,235.140488 91.103409,223.759460 75.800751,218.443008 
	C66.906349,215.352921 57.806252,212.854889 49.941887,210.441299 
	C57.760082,208.168640 66.775574,205.897537 75.549492,202.915619 
	C88.748283,198.429871 98.638123,189.906876 101.733093,175.977234 
	C104.103653,165.307953 105.490425,154.258759 105.832863,143.332108 
	C106.676445,116.414413 106.466942,89.465096 107.124794,62.539333 
	C107.315437,54.736141 109.460030,46.524334 116.553658,42.398712 
	C122.399200,38.998970 129.544708,37.150200 136.332504,36.236553 
	C143.968613,35.208725 151.849579,36.000076 159.636047,36.000076 
	C159.636047,25.017317 159.636047,14.632241 159.636047,4.068081 
	C141.623978,4.006505 123.956955,3.052918 106.635567,7.963236 
	C93.008797,11.826195 82.356171,18.818270 77.012711,32.660088 
	C72.338585,44.768040 70.457184,57.418789 70.152328,70.156960 
	C69.610168,92.810249 70.275810,115.490891 69.861458,138.149582 
	C69.700348,146.959732 68.782982,155.926880 66.798645,164.495667 
	C63.176235,180.138046 54.074368,191.202164 37.090935,192.954895 
	C25.117794,194.190567 13.034251,194.356476 1.000000,195.000000 
z"/>
<path fill="#073446" opacity="1.000000" stroke="none" 
	d="
M244.468628,412.000000 
	C243.004929,411.325470 242.096695,410.412598 241.001266,410.013428 
	C230.543869,406.202759 222.535675,399.398560 217.035324,389.843933 
	C210.979599,379.324585 208.181366,367.898560 206.816803,355.756195 
	C204.096436,331.549347 209.369888,308.349884 213.847458,284.245178 
	C210.738388,283.241547 207.300919,282.129974 203.862244,281.022217 
	C184.905273,274.915222 166.624542,267.321442 150.120056,255.987961 
	C138.837463,248.240311 129.019272,239.205383 122.809639,226.549042 
	C114.086716,208.770233 117.027657,192.420929 128.362442,177.269943 
	C142.625198,158.205200 163.107712,147.825912 184.477585,139.074509 
	C194.114716,135.127899 204.067520,131.952209 213.693069,128.492889 
	C211.473404,116.331245 208.458145,104.336487 207.240631,92.161949 
	C204.969315,69.449837 204.524887,46.807247 215.698059,25.613558 
	C222.117691,13.436560 231.816864,5.711726 244.884613,1.356334 
	C252.354248,1.000000 259.708496,1.000000 267.676453,1.379078 
	C282.865479,3.835736 295.820007,10.149388 307.640350,18.373919 
	C321.924713,28.312897 335.496948,39.275349 349.733337,50.064606 
	C355.186798,45.413666 361.373535,39.508377 368.197601,34.465488 
	C378.329895,26.977840 388.476685,19.317730 399.438904,13.204257 
	C408.685516,8.047564 419.101562,4.987875 429.000000,0.999999 
	C436.020966,1.000000 443.041901,1.000000 450.531433,1.000000 
	C457.987640,3.649374 464.964386,5.962841 470.881378,11.123394 
	C478.105835,17.424299 482.608856,25.167349 486.010468,33.811813 
	C491.641754,48.122345 493.013763,63.195995 491.780457,78.212280 
	C490.415192,94.834732 487.348145,111.317413 484.862671,128.995789 
	C488.650452,130.160629 493.653992,131.503510 498.521362,133.230209 
	C519.301514,140.601990 539.623474,149.184067 556.646545,163.464035 
	C570.650024,175.210999 581.089539,189.419250 580.055603,209.280884 
	C579.536621,219.250763 575.627808,227.841293 569.835938,235.542389 
	C556.650208,253.074600 538.131165,263.423187 518.527771,271.883728 
	C507.345703,276.709747 495.680328,280.415833 484.350464,284.582855 
	C486.549774,296.752472 489.539551,308.909546 490.741486,321.240875 
	C491.836639,332.476929 491.056366,343.902435 490.984863,355.243713 
	C490.909607,367.183167 487.424316,378.291046 481.693512,388.592926 
	C475.014740,400.598907 465.195435,408.788452 451.133545,411.629822 
	C442.979095,412.000000 434.958191,412.000000 426.360382,411.633850 
	C425.428436,410.918427 425.127106,410.354889 424.710663,410.250488 
	C402.978546,404.802521 385.057098,392.533813 368.112396,378.566223 
	C361.561249,373.166107 355.213654,367.519165 348.991302,362.171967 
	C342.546600,367.717957 336.498596,373.576996 329.789551,378.542786 
	C319.667725,386.034607 309.552155,393.757263 298.555725,399.777710 
	C289.003235,405.007568 278.232391,408.012024 268.000000,412.000000 
	C260.312408,412.000000 252.624832,412.000000 244.468628,412.000000 
M403.535522,154.035706 
	C400.013458,148.620758 396.686920,143.061737 392.861023,137.870728 
	C391.559326,136.104507 389.098419,134.401581 386.997009,134.161911 
	C380.294342,133.397507 373.509033,133.007553 366.760498,133.062897 
	C348.515564,133.212540 330.268616,133.535706 312.035156,134.160141 
	C309.664154,134.241333 306.344452,135.892029 305.193298,137.838379 
	C292.296021,159.644882 279.688995,181.624252 267.199554,203.667969 
	C266.366028,205.139130 266.464203,207.829941 267.240814,209.405426 
	C271.242462,217.523224 275.344879,225.615005 279.902374,233.429977 
	C288.189056,247.639587 296.729095,261.705200 305.432404,275.663177 
	C306.461182,277.313110 309.103241,278.671417 311.120605,278.862152 
	C318.339020,279.544586 325.612946,279.991272 332.861328,279.935577 
	C350.606628,279.799377 368.355438,279.490448 386.086060,278.812561 
	C388.459534,278.721832 391.502960,276.627167 392.938599,274.559540 
	C407.056671,254.226547 419.288208,232.778671 430.205444,210.558075 
	C431.653595,207.610535 431.964203,205.554321 430.296875,202.583740 
	C421.375275,186.688721 412.711151,170.649216 403.535522,154.035706 
M177.038864,165.452484 
	C166.544037,171.416107 156.334396,177.665573 147.851944,186.534607 
	C136.244492,198.671112 136.191284,214.408127 147.926712,226.469620 
	C166.954681,246.026230 191.721649,254.635529 216.723618,262.772919 
	C217.773254,263.114532 220.382401,261.502014 220.883713,260.247742 
	C225.422028,248.893036 229.576233,237.385666 234.002106,225.984818 
	C236.506241,219.534241 241.384811,213.201599 241.391815,206.811676 
	C241.398834,200.427475 236.533478,194.088867 234.036880,187.640152 
	C229.103577,174.897430 224.330933,162.092499 219.217819,148.589615 
	C205.407654,154.059433 191.547684,159.548981 177.038864,165.452484 
M533.557983,172.949234 
	C516.565552,161.840958 497.682434,155.141556 478.396881,149.364685 
	C478.116272,149.867310 477.732239,150.398682 477.502197,150.989975 
	C470.512543,168.957520 463.506561,186.918945 456.636078,204.932037 
	C456.204529,206.063568 456.564301,207.716431 457.037628,208.940491 
	C463.528564,225.727127 470.218353,242.438004 476.562714,259.279236 
	C477.826324,262.633667 478.829285,263.745483 482.489563,262.286804 
	C492.922302,258.129181 503.596588,254.576401 514.020264,250.397476 
	C528.053223,244.771576 540.750916,236.882462 550.847778,225.514328 
	C560.106140,215.090240 562.770630,203.355927 553.714600,191.596695 
	C548.314087,184.584045 540.838684,179.169266 533.557983,172.949234 
M322.024292,357.463074 
	C325.218811,354.616821 328.580658,351.927765 331.498230,348.821442 
	C332.295776,347.972290 332.279633,345.631836 331.714081,344.399170 
	C330.856628,342.530365 329.196716,341.028046 327.869110,339.377014 
	C319.900360,329.466766 312.148529,319.369781 303.857941,309.736420 
	C300.203674,305.490326 298.469360,298.908081 291.612488,298.042816 
	C285.288116,297.244751 278.900970,296.900635 272.602173,295.953094 
	C260.158264,294.081146 247.756287,291.930420 235.060257,289.849579 
	C234.830719,290.515900 234.243225,291.691254 234.027435,292.931274 
	C232.304260,302.833191 230.594528,312.738098 228.990540,322.659882 
	C226.614029,337.360107 226.770126,352.071136 230.122559,366.569458 
	C231.831619,373.960632 234.770050,381.026672 241.077011,386.013458 
	C249.716965,392.844818 259.463104,392.065887 269.053650,389.369904 
	C289.317200,383.673645 305.950378,371.655975 322.024292,357.463074 
M470.052246,66.780762 
	C470.537079,57.149979 469.021790,47.800713 465.372162,38.919399 
	C460.733215,27.630632 452.674133,21.220751 439.832611,21.968513 
	C428.423248,22.632881 418.231598,26.742697 408.375366,32.175941 
	C391.806396,41.309628 377.419830,53.201012 364.507324,65.899796 
	C375.479218,79.860916 386.238007,93.589600 397.047699,107.278114 
	C399.700867,110.637863 401.826233,114.370041 406.929718,115.083977 
	C424.291809,117.512802 441.597626,120.341415 458.939423,122.919983 
	C461.417786,123.288490 463.409485,123.352287 464.153259,119.551788 
	C466.971161,105.152618 470.347137,90.867241 470.015472,76.049782 
	C469.952545,73.238228 470.088348,70.422226 470.052246,66.780762 
M229.000000,93.432755 
	C230.657288,102.007271 232.660980,110.535004 233.828049,119.175728 
	C234.425705,123.600555 236.680374,123.301643 239.630234,122.712112 
	C243.908096,121.857170 248.131058,120.646721 252.441406,120.050102 
	C265.507996,118.241486 278.619751,116.755287 291.675934,114.879196 
	C293.741699,114.582352 296.199768,113.392731 297.478699,111.809776 
	C308.831451,97.758049 319.851837,83.437195 331.248260,69.421761 
	C333.418610,66.752617 333.081635,65.456779 330.896423,63.338284 
	C317.023407,49.888847 301.853058,38.116974 284.606964,29.411594 
	C275.062805,24.593960 264.839325,21.033152 253.733917,22.006739 
	C247.357147,22.565777 242.123459,25.167015 237.933441,30.193151 
	C227.981537,42.131020 228.276825,56.808102 227.236130,70.939384 
	C226.712479,78.050049 228.343384,85.319397 229.000000,93.432755 
M385.484436,321.010101 
	C378.418732,329.555725 371.353027,338.101379 364.209778,346.740784 
	C376.284668,359.053650 389.698364,369.988770 404.653076,378.820099 
	C416.838287,386.015930 429.656586,392.005951 444.425232,390.958649 
	C450.771149,390.508636 455.884949,387.708221 460.113983,382.685242 
	C470.149200,370.766052 469.899200,356.094116 470.667267,342.047607 
	C471.204254,332.227234 469.302399,322.211121 467.897827,312.366852 
	C466.788177,304.589630 464.777191,296.940979 463.197144,289.381989 
	C456.958557,290.670135 451.362427,292.128479 445.674011,292.939117 
	C432.625397,294.798615 419.506531,296.177032 406.479797,298.167114 
	C404.146729,298.523529 401.637054,300.475037 400.040039,302.385010 
	C395.143738,308.240601 390.651703,314.434204 385.484436,321.010101 
M348.500000,301.000000 
	C340.538269,301.000000 332.576569,301.000000 323.301208,301.000000 
	C332.155212,311.653992 340.386658,321.558868 349.025116,331.953491 
	C357.765656,321.403992 365.914642,311.568420 374.670868,301.000000 
	C365.423431,301.000000 357.461731,301.000000 348.500000,301.000000 
M345.987244,84.523384 
	C342.644775,88.528961 339.261658,92.501511 335.970184,96.548584 
	C331.960632,101.478668 328.028107,106.471420 323.722168,111.862869 
	C340.954132,111.862869 357.185577,111.862869 374.614838,111.862869 
	C366.290405,101.883591 358.499146,92.587616 350.766388,83.243286 
	C348.762085,80.821297 347.750641,82.845505 345.987244,84.523384 
M258.485596,238.988846 
	C257.257141,236.687500 256.028656,234.386154 254.310135,231.166779 
	C249.467346,244.215637 245.018814,256.202118 240.186523,269.222687 
	C253.500870,271.417786 266.070984,273.490173 279.691956,275.735809 
	C272.221741,262.715393 265.586975,251.151184 258.485596,238.988846 
M437.327148,272.995300 
	C443.956909,271.613647 450.586639,270.231995 457.677521,268.754242 
	C452.836731,255.841690 448.393890,243.990692 443.758850,231.627029 
	C435.082123,246.599594 426.879517,260.754059 418.385040,275.412140 
	C424.557800,274.586945 430.494659,273.793274 437.327148,272.995300 
M274.986603,145.521439 
	C276.554077,143.129456 278.121552,140.737473 280.509247,137.093842 
	C266.493988,139.429993 253.685837,141.564926 240.206589,143.811722 
	C245.100708,156.953659 249.567078,168.947021 254.277252,181.595032 
	C261.269531,169.274002 267.860687,157.659805 274.986603,145.521439 
M427.047058,152.404968 
	C432.478302,161.889832 437.909576,171.374680 443.736664,181.550812 
	C448.427155,168.962936 452.888641,156.989594 457.794922,143.822662 
	C444.559082,141.605270 431.983246,139.498459 419.407379,137.391647 
	C419.170990,137.850739 418.934570,138.309830 418.698181,138.768936 
	C421.451477,143.065506 424.204773,147.362091 427.047058,152.404968 
z"/>
<path fill="#EA3788" opacity="1.000000" stroke="none" 
	d="
M1.000000,195.468658 
	C13.034251,194.356476 25.117794,194.190567 37.090935,192.954895 
	C54.074368,191.202164 63.176235,180.138046 66.798645,164.495667 
	C68.782982,155.926880 69.700348,146.959732 69.861458,138.149582 
	C70.275810,115.490891 69.610168,92.810249 70.152328,70.156960 
	C70.457184,57.418789 72.338585,44.768040 77.012711,32.660088 
	C82.356171,18.818270 93.008797,11.826195 106.635567,7.963236 
	C123.956955,3.052918 141.623978,4.006505 159.636047,4.068081 
	C159.636047,14.632241 159.636047,25.017317 159.636047,36.000076 
	C151.849579,36.000076 143.968613,35.208725 136.332504,36.236553 
	C129.544708,37.150200 122.399200,38.998970 116.553658,42.398712 
	C109.460030,46.524334 107.315437,54.736141 107.124794,62.539333 
	C106.466942,89.465096 106.676445,116.414413 105.832863,143.332108 
	C105.490425,154.258759 104.103653,165.307953 101.733093,175.977234 
	C98.638123,189.906876 88.748283,198.429871 75.549492,202.915619 
	C66.775574,205.897537 57.760082,208.168640 49.941887,210.441299 
	C57.806252,212.854889 66.906349,215.352921 75.800751,218.443008 
	C91.103409,223.759460 99.774467,235.140488 102.854439,250.620422 
	C104.576424,259.275116 105.647362,268.173248 105.863998,276.989899 
	C106.314194,295.311829 105.670326,313.661255 106.153084,331.981537 
	C106.362755,339.938416 107.756599,347.959167 109.484055,355.757874 
	C111.840973,366.398254 120.069191,370.716644 129.983261,371.913147 
	C140.095230,373.133484 150.291977,373.651459 160.727692,374.499359 
	C160.727692,384.362549 160.727692,394.297058 160.727692,404.286804 
	C160.536331,404.444794 160.288040,404.829865 160.034866,404.833099 
	C143.509827,405.044495 126.887764,406.186218 110.674759,401.923920 
	C98.262520,398.660767 86.013847,394.157593 80.315575,381.501556 
	C76.490746,373.006500 73.617989,363.761261 72.207298,354.562134 
	C68.264595,328.851654 70.748909,302.847870 69.876869,276.985840 
	C69.408981,263.110077 64.733429,250.230927 55.790596,239.500702 
	C48.990021,231.340942 39.597214,227.345551 28.935301,227.051132 
	C19.942358,226.802811 10.937114,227.000000 1.468657,227.000000 
	C1.000000,216.645767 1.000000,206.291550 1.000000,195.468658 
z"/>
<path fill="#EA3788" opacity="1.000000" stroke="none" 
	d="
M702.000000,226.531342 
	C694.168640,227.000000 686.325745,227.270554 678.508789,226.934616 
	C667.638367,226.467453 657.886414,229.450012 650.000549,236.733002 
	C642.776001,243.405289 638.206238,252.192062 636.182678,261.733582 
	C634.355713,270.348114 633.398987,279.257080 633.132751,288.068634 
	C632.659973,303.717010 633.104797,319.390869 632.969971,335.052368 
	C632.839294,350.234894 630.849365,365.185425 624.808716,379.221069 
	C620.505920,389.218750 612.460388,395.456909 602.223694,399.061676 
	C590.649597,403.137360 578.746887,405.000092 566.514832,405.000000 
	C558.880554,404.999969 551.246338,405.000000 543.307861,405.000000 
	C543.307861,394.585907 543.307861,384.536530 543.307861,374.247284 
	C551.034851,373.825409 558.618469,373.660583 566.143738,372.910767 
	C570.968994,372.429993 575.819031,371.454651 580.464172,370.057068 
	C591.605713,366.704895 595.369690,357.454407 595.823181,347.332794 
	C597.010742,320.826813 597.135132,294.275055 598.081665,267.755707 
	C598.570618,254.058548 600.572388,240.190704 610.345947,229.882980 
	C615.650757,224.288361 623.312378,220.557495 630.485718,217.222046 
	C636.301636,214.517761 642.986938,213.699127 649.254211,211.929306 
	C650.032593,211.709503 650.611816,210.784180 651.718567,209.797821 
	C639.082214,206.754852 627.396973,204.051926 616.875916,197.575241 
	C606.635437,191.271317 601.716858,181.695740 600.198730,170.622330 
	C598.368347,157.272064 597.481628,143.734955 597.125366,130.253922 
	C596.628113,111.438545 597.305786,92.592636 596.840393,73.775627 
	C596.668640,66.830864 595.024231,59.851070 593.439941,53.029278 
	C591.009155,42.562897 582.947388,38.241974 573.282593,37.138367 
	C563.458801,36.016598 553.508545,36.002113 543.303467,35.487080 
	C543.303467,25.244022 543.303467,14.861945 543.303467,4.193463 
	C564.426453,3.617275 585.396179,2.835696 605.250061,11.183891 
	C615.257141,15.391686 622.154785,23.096838 625.915466,33.261196 
	C629.742065,43.603767 631.877625,54.338882 632.007446,65.427475 
	C632.318787,92.023819 632.329285,118.630180 633.151855,145.211121 
	C633.526001,157.299881 635.817261,169.194687 643.014282,179.599701 
	C648.305725,187.249893 655.777832,191.703140 664.498169,192.789139 
	C676.590637,194.295074 688.865784,194.333344 701.531372,195.000000 
	C702.000000,205.354233 702.000000,215.708450 702.000000,226.531342 
z"/>
<path fill="#FFFFFF" opacity="1.000000" stroke="none" 
	d="
M428.531342,0.999999 
	C419.101562,4.987875 408.685516,8.047564 399.438904,13.204257 
	C388.476685,19.317730 378.329895,26.977840 368.197601,34.465488 
	C361.373535,39.508377 355.186798,45.413666 349.733337,50.064606 
	C335.496948,39.275349 321.924713,28.312897 307.640350,18.373919 
	C295.820007,10.149388 282.865479,3.835736 268.145081,1.379078 
	C321.354218,1.000000 374.708466,1.000000 428.531342,0.999999 
z"/>
<path fill="#FFFFFF" opacity="1.000000" stroke="none" 
	d="
M268.468658,412.000000 
	C278.232391,408.012024 289.003235,405.007568 298.555725,399.777710 
	C309.552155,393.757263 319.667725,386.034607 329.789551,378.542786 
	C336.498596,373.576996 342.546600,367.717957 348.991302,362.171967 
	C355.213654,367.519165 361.561249,373.166107 368.112396,378.566223 
	C385.057098,392.533813 402.978546,404.802521 424.710663,410.250488 
	C425.127106,410.354889 425.428436,410.918427 425.891724,411.633850 
	C373.645782,412.000000 321.291534,412.000000 268.468658,412.000000 
z"/>
<path fill="#FFFFFF" opacity="1.000000" stroke="none" 
	d="
M403.746765,154.347672 
	C412.711151,170.649216 421.375275,186.688721 430.296875,202.583740 
	C431.964203,205.554321 431.653595,207.610535 430.205444,210.558075 
	C419.288208,232.778671 407.056671,254.226547 392.938599,274.559540 
	C391.502960,276.627167 388.459534,278.721832 386.086060,278.812561 
	C368.355438,279.490448 350.606628,279.799377 332.861328,279.935577 
	C325.612946,279.991272 318.339020,279.544586 311.120605,278.862152 
	C309.103241,278.671417 306.461182,277.313110 305.432404,275.663177 
	C296.729095,261.705200 288.189056,247.639587 279.902374,233.429977 
	C275.344879,225.615005 271.242462,217.523224 267.240814,209.405426 
	C266.464203,207.829941 266.366028,205.139130 267.199554,203.667969 
	C279.688995,181.624252 292.296021,159.644882 305.193298,137.838379 
	C306.344452,135.892029 309.664154,134.241333 312.035156,134.160141 
	C330.268616,133.535706 348.515564,133.212540 366.760498,133.062897 
	C373.509033,133.007553 380.294342,133.397507 386.997009,134.161911 
	C389.098419,134.401581 391.559326,136.104507 392.861023,137.870728 
	C396.686920,143.061737 400.013458,148.620758 403.746765,154.347672 
M321.566620,174.957123 
	C309.247437,186.311798 304.462372,200.380981 308.381622,216.551773 
	C312.928345,235.311905 330.606720,248.350494 349.433899,248.158630 
	C372.129150,247.927353 391.294098,228.933243 390.880432,205.530899 
	C390.724457,196.708862 387.540070,188.738510 382.186584,181.332230 
	C373.504456,169.320984 354.800140,161.522583 340.752625,165.882614 
	C334.264832,167.896286 328.279053,171.527298 321.566620,174.957123 
z"/>
<path fill="#FFFFFF" opacity="1.000000" stroke="none" 
	d="
M177.363297,165.245499 
	C191.547684,159.548981 205.407654,154.059433 219.217819,148.589615 
	C224.330933,162.092499 229.103577,174.897430 234.036880,187.640152 
	C236.533478,194.088867 241.398834,200.427475 241.391815,206.811676 
	C241.384811,213.201599 236.506241,219.534241 234.002106,225.984818 
	C229.576233,237.385666 225.422028,248.893036 220.883713,260.247742 
	C220.382401,261.502014 217.773254,263.114532 216.723618,262.772919 
	C191.721649,254.635529 166.954681,246.026230 147.926712,226.469620 
	C136.191284,214.408127 136.244492,198.671112 147.851944,186.534607 
	C156.334396,177.665573 166.544037,171.416107 177.363297,165.245499 
z"/>
<path fill="#FFFFFF" opacity="1.000000" stroke="none" 
	d="
M533.927002,172.992706 
	C540.838684,179.169266 548.314087,184.584045 553.714600,191.596695 
	C562.770630,203.355927 560.106140,215.090240 550.847778,225.514328 
	C540.750916,236.882462 528.053223,244.771576 514.020264,250.397476 
	C503.596588,254.576401 492.922302,258.129181 482.489563,262.286804 
	C478.829285,263.745483 477.826324,262.633667 476.562714,259.279236 
	C470.218353,242.438004 463.528564,225.727127 457.037628,208.940491 
	C456.564301,207.716431 456.204529,206.063568 456.636078,204.932037 
	C463.506561,186.918945 470.512543,168.957520 477.502197,150.989975 
	C477.732239,150.398682 478.116272,149.867310 478.396881,149.364685 
	C497.682434,155.141556 516.565552,161.840958 533.927002,172.992706 
z"/>
<path fill="#FFFFFF" opacity="1.000000" stroke="none" 
	d="
M321.774139,357.723938 
	C305.950378,371.655975 289.317200,383.673645 269.053650,389.369904 
	C259.463104,392.065887 249.716965,392.844818 241.077011,386.013458 
	C234.770050,381.026672 231.831619,373.960632 230.122559,366.569458 
	C226.770126,352.071136 226.614029,337.360107 228.990540,322.659882 
	C230.594528,312.738098 232.304260,302.833191 234.027435,292.931274 
	C234.243225,291.691254 234.830719,290.515900 235.060257,289.849579 
	C247.756287,291.930420 260.158264,294.081146 272.602173,295.953094 
	C278.900970,296.900635 285.288116,297.244751 291.612488,298.042816 
	C298.469360,298.908081 300.203674,305.490326 303.857941,309.736420 
	C312.148529,319.369781 319.900360,329.466766 327.869110,339.377014 
	C329.196716,341.028046 330.856628,342.530365 331.714081,344.399170 
	C332.279633,345.631836 332.295776,347.972290 331.498230,348.821442 
	C328.580658,351.927765 325.218811,354.616821 321.774139,357.723938 
z"/>
<path fill="#FFFFFF" opacity="1.000000" stroke="none" 
	d="
M470.092346,67.194519 
	C470.088348,70.422226 469.952545,73.238228 470.015472,76.049782 
	C470.347137,90.867241 466.971161,105.152618 464.153259,119.551788 
	C463.409485,123.352287 461.417786,123.288490 458.939423,122.919983 
	C441.597626,120.341415 424.291809,117.512802 406.929718,115.083977 
	C401.826233,114.370041 399.700867,110.637863 397.047699,107.278114 
	C386.238007,93.589600 375.479218,79.860916 364.507324,65.899796 
	C377.419830,53.201012 391.806396,41.309628 408.375366,32.175941 
	C418.231598,26.742697 428.423248,22.632881 439.832611,21.968513 
	C452.674133,21.220751 460.733215,27.630632 465.372162,38.919399 
	C469.021790,47.800713 470.537079,57.149979 470.092346,67.194519 
z"/>
<path fill="#FFFFFF" opacity="1.000000" stroke="none" 
	d="
M228.999985,92.974869 
	C228.343384,85.319397 226.712479,78.050049 227.236130,70.939384 
	C228.276825,56.808102 227.981537,42.131020 237.933441,30.193151 
	C242.123459,25.167015 247.357147,22.565777 253.733917,22.006739 
	C264.839325,21.033152 275.062805,24.593960 284.606964,29.411594 
	C301.853058,38.116974 317.023407,49.888847 330.896423,63.338284 
	C333.081635,65.456779 333.418610,66.752617 331.248260,69.421761 
	C319.851837,83.437195 308.831451,97.758049 297.478699,111.809776 
	C296.199768,113.392731 293.741699,114.582352 291.675934,114.879196 
	C278.619751,116.755287 265.507996,118.241486 252.441406,120.050102 
	C248.131058,120.646721 243.908096,121.857170 239.630234,122.712112 
	C236.680374,123.301643 234.425705,123.600555 233.828049,119.175728 
	C232.660980,110.535004 230.657288,102.007271 228.999985,92.974869 
z"/>
<path fill="#FFFFFF" opacity="1.000000" stroke="none" 
	d="
M385.743469,320.753235 
	C390.651703,314.434204 395.143738,308.240601 400.040039,302.385010 
	C401.637054,300.475037 404.146729,298.523529 406.479797,298.167114 
	C419.506531,296.177032 432.625397,294.798615 445.674011,292.939117 
	C451.362427,292.128479 456.958557,290.670135 463.197144,289.381989 
	C464.777191,296.940979 466.788177,304.589630 467.897827,312.366852 
	C469.302399,322.211121 471.204254,332.227234 470.667267,342.047607 
	C469.899200,356.094116 470.149200,370.766052 460.113983,382.685242 
	C455.884949,387.708221 450.771149,390.508636 444.425232,390.958649 
	C429.656586,392.005951 416.838287,386.015930 404.653076,378.820099 
	C389.698364,369.988770 376.284668,359.053650 364.209778,346.740784 
	C371.353027,338.101379 378.418732,329.555725 385.743469,320.753235 
z"/>
<path fill="#FFFFFF" opacity="1.000000" stroke="none" 
	d="
M349.000000,301.000000 
	C357.461731,301.000000 365.423431,301.000000 374.670868,301.000000 
	C365.914642,311.568420 357.765656,321.403992 349.025116,331.953491 
	C340.386658,321.558868 332.155212,311.653992 323.301208,301.000000 
	C332.576569,301.000000 340.538269,301.000000 349.000000,301.000000 
z"/>
<path fill="#FFFFFF" opacity="1.000000" stroke="none" 
	d="
M346.239014,84.264809 
	C347.750641,82.845505 348.762085,80.821297 350.766388,83.243286 
	C358.499146,92.587616 366.290405,101.883591 374.614838,111.862869 
	C357.185577,111.862869 340.954132,111.862869 323.722168,111.862869 
	C328.028107,106.471420 331.960632,101.478668 335.970184,96.548584 
	C339.261658,92.501511 342.644775,88.528961 346.239014,84.264809 
z"/>
<path fill="#FFFFFF" opacity="1.000000" stroke="none" 
	d="
M258.718903,239.287903 
	C265.586975,251.151184 272.221741,262.715393 279.691956,275.735809 
	C266.070984,273.490173 253.500870,271.417786 240.186523,269.222687 
	C245.018814,256.202118 249.467346,244.215637 254.310135,231.166779 
	C256.028656,234.386154 257.257141,236.687500 258.718903,239.287903 
z"/>
<path fill="#FFFFFF" opacity="1.000000" stroke="none" 
	d="
M436.879333,272.997467 
	C430.494659,273.793274 424.557800,274.586945 418.385040,275.412140 
	C426.879517,260.754059 435.082123,246.599594 443.758850,231.627029 
	C448.393890,243.990692 452.836731,255.841690 457.677521,268.754242 
	C450.586639,270.231995 443.956909,271.613647 436.879333,272.997467 
z"/>
<path fill="#FFFFFF" opacity="1.000000" stroke="none" 
	d="
M274.719208,145.783508 
	C267.860687,157.659805 261.269531,169.274002 254.277252,181.595032 
	C249.567078,168.947021 245.100708,156.953659 240.206589,143.811722 
	C253.685837,141.564926 266.493988,139.429993 280.509247,137.093842 
	C278.121552,140.737473 276.554077,143.129456 274.719208,145.783508 
z"/>
<path fill="#FFFFFF" opacity="1.000000" stroke="none" 
	d="
M427.002563,152.031830 
	C424.204773,147.362091 421.451477,143.065506 418.698181,138.768936 
	C418.934570,138.309830 419.170990,137.850739 419.407379,137.391647 
	C431.983246,139.498459 444.559082,141.605270 457.794922,143.822662 
	C452.888641,156.989594 448.427155,168.962936 443.736664,181.550812 
	C437.909576,171.374680 432.478302,161.889832 427.002563,152.031830 
z"/>
<path fill="#073446" opacity="1.000000" stroke="none" 
	d="
M321.816132,174.691071 
	C328.279053,171.527298 334.264832,167.896286 340.752625,165.882614 
	C354.800140,161.522583 373.504456,169.320984 382.186584,181.332230 
	C387.540070,188.738510 390.724457,196.708862 390.880432,205.530899 
	C391.294098,228.933243 372.129150,247.927353 349.433899,248.158630 
	C330.606720,248.350494 312.928345,235.311905 308.381622,216.551773 
	C304.462372,200.380981 309.247437,186.311798 321.816132,174.691071 
z"/>
</svg>